<?xml version="1.0" encoding="UTF-8"?>
<svg xmlns="http://www.w3.org/2000/svg" version="1.1" viewBox="0 0 1920 1080">
  <defs>
    <style>
      .cls-1 {
        display: none;
      }
    </style>
  </defs>
  <!-- Generator: Adobe Illustrator 28.7.4, SVG Export Plug-In . SVG Version: 1.2.0 Build 166)  -->
  <g>
    <g id="Layer_1">
      <g>
        <path d="M200.44,666.86c.31,6.33,1.63,12.6,4.21,18.39,2.26,5.07,5.27,9.53,9,13.39,5.01,5.17,11.34,9.25,18.97,12.22,11.34,4.42,23.14,6.59,35.36,6.57,30.22-.07,60.45-.08,90.67,0,49.07.11,98.13.36,147.2.44,15.58.03,31.16-.28,46.73-.46,5.64-.06,10.36-4.38,10.96-10.06.77-7.3,1.46-14.61,2.19-21.92,1.35-13.41,2.73-26.82,4.07-40.24.39-3.96.64-7.93,1.04-11.88.52-5.2-3.23-7.72-7.32-8-1.08-.07-2.18-.02-3.26-.02-52.23,0-104.45,0-156.68,0-1.09,0-2.18-.04-3.26,0-1.45.04-2.48-.81-2.59-2.02-.08-.88.58-2.18,1.33-2.69,1.68-1.15,3.59-1.98,5.44-2.86,12.42-5.93,24.86-11.79,37.26-17.77,20.01-9.65,40.02-19.28,59.95-29.11,11.69-5.77,23.31-11.7,33.87-19.48,25.68-18.93,41.72-43.81,46.86-75.46,2.37-14.57,2.36-29.06-1.53-43.41-3.24-11.97-8.93-22.62-17.26-31.84-12.4-13.72-28-21.9-45.71-26.37-14.08-3.56-28.36-5.35-42.95-5.36-75.3-.02-150.6-.26-225.9-.42-.97,0-1.94-.03-2.9,0-5.25.21-9.19,3.76-9.72,8.95-1.11,10.9-2.09,21.82-3.18,32.72-1.31,13.17-2.69,26.34-4.01,39.51-.13,1.32-.16,2.66-.07,3.98.24,3.6,3.22,6.48,6.87,6.7l167.92.02c10.63,0,21.27-.03,31.9.3,6.37.19,12.77.9,18.78,3.32,4.95,1.99,8.6,5.22,9.69,10.79.65,3.32-.38,6.2-1.96,8.94-1.9,3.3-4.68,5.85-7.82,7.91-3.02,1.99-6.09,3.96-9.34,5.52-15.66,7.53-31.35,15-47.11,22.34-18.27,8.51-36.61,16.84-54.92,25.27-19.95,9.18-39.91,18.33-59.83,27.58-13.24,6.15-26.42,12.44-39.61,18.72-7.81,3.72-14.79,8.72-20.9,14.78-9.07,9-15.53,19.71-19.02,32.03-.64,2.24-1.17,4.52-1.65,6.8-1.55,7.28-2.09,14.74-1.73,22.18h0Z"/>
        <path d="M746.07,363.08c-9.66.14-19.34-.09-28.99.38-25.93,1.27-48.97,9.8-68.23,27.72-11.18,10.41-19.9,22.59-27.12,35.95-12.34,22.85-19.65,47.37-24.35,72.79-2.89,15.65-4.76,31.42-6.54,47.22-2.11,18.75-2.6,37.56-2.04,56.38.6,19.81,3.12,39.41,9.44,58.32,4.33,12.96,10.59,24.88,19.99,34.92,3.15,3.37,7.19,6.6,11.72,9.56,15.53,10.18,33.84,15.3,52.41,15.3h5.85c50.54,0,166.02,0,166.02,0,14.8.02,23.81-4.6,36.86-11.27,11.81-6.03,22.22-14,31.19-23.83,8.36-9.16,15.13-19.12,19.85-30.15.02-.05.05-.09.07-.14.42-.92.85-1.99,1.27-3.15,1.99-5.2,3.55-10.63,4.59-16.33,1.01-4.56,2.12-11.18,3.27-19.03,6.99-42.81,11.94-102.07,11.94-102.07,0,0,0,0,0,0,.19-2.16.35-4.32.45-6.49.44-10,.91-20.01.95-30.02.04-10.73-.6-21.47-.61-32.21-.02-10.9-2.38-21.31-6.06-31.45-5.1-14.09-13.51-25.81-25.74-34.63-8.43-6.08-17.91-9.87-27.88-12.63-13.72-3.81-27.83-4.23-41.9-4.8-7.72-.31-15.46-.22-23.18-.36h-93.22ZM830.69,628.9c-6.58.14-2.97.13-9.55.23-10.03.15-16.79-.25-26.82-.25-10.99,0-21.99-.19-32.98-.2-8.09,0-16.19.16-24.28.22-5.28.04-10.58.27-15.84-.03-20.7-1.19-35.24-17.24-36.43-37.26-.87-14.7-.29-29.41,1.1-44.09,1.31-13.83,3.5-27.49,6.91-40.94,2.34-9.24,4.8-18.45,9.34-26.94,5.56-10.4,13.12-18.68,24.03-23.7,6.94-3.2,14.3-4.31,21.77-4.68,9.76-.48,19.53-.71,29.3-.74,10.38-.04,20.76.22,31.13.46,6.63.15,13.27.28,19.87.81,7.59.61,14.59,3.13,20.82,7.61,8.77,6.3,13.63,15.09,16.26,25.34,1.73,6.73,1.53,13.63,1.91,20.47.08,1.4.16,2.8.16,4.2,0,85.45-13.45,118.88-36.69,119.51Z"/>
        <path d="M1755.01,368.89c-52.22.11-104.45.07-156.67.07-67.33,0-134.67,0-202,0-7.25,0-10.36,2.87-10.91,10.01-.25,3.24-.53,6.48-.8,9.72-.97,11.76-1.92,23.52-2.91,35.28-.39,4.68-.93,9.34-1.29,14.02-.41,5.41-.83,10.82-.97,16.24-.1,3.86,2.68,6.55,6.51,6.84.72.05,1.45.01,2.18.02,55.36.08,110.72.16,166.08.24,13.78.02,27.56,0,41.34,0,2.93,0,5.99-.79,8,5.92.91,3.03.21,6.33-1.85,8.73l-.13.15c-14.43,16.86-28.87,33.72-43.28,50.59,0,0-.01.01-.02.02-.85,1-.08,2.54,1.23,2.54h.3c44.12,0,88.25-.02,132.37.06,2.35,0,3.73-.8,5.11-2.55,15.77-20,31.63-39.91,47.36-59.94,1.91-2.43,3.61-5.24,4.58-8.15,1.32-3.97,1.94-8.19,2.7-12.33,3.35-18.25,6.64-36.52,9.95-54.77.7-3.88,1.4-7.75,2.1-11.63.72-3.55.88-4.34.74-5.44-.09-.73-.37-1.44-.82-2.01-2.1-2.66-5.28-3.63-8.91-3.62Z"/>
        <path d="M1008.15,460.48c63.29-.1,126.58.04,189.87.16,4.19,0,8.38.2,12.54.65,5.36.58,10.68,1.58,15.47,4.2,4.97,2.72,7.67,6.84,7.08,12.75-.33,3.31-1.99,5.91-4.17,8.24-3.92,4.2-8.52,7.58-13.62,10.08-12.89,6.31-25.9,12.38-38.9,18.47-8.19,3.84-16.43,7.6-24.69,11.28-1.06.47-1.63.96-1.59,1.75.04.84.84,1.46,1.68,1.46h3.02c32.27,0,64.55.03,96.82-.01,22.48-.03,44.96-.25,67.43-.15,5.35.02,9.32-1.99,12.49-6,4.29-5.42,7.78-11.36,10.66-17.63,6.2-13.52,9.56-27.76,10.36-42.61.95-17.48-2-34.12-10.62-49.54-7.08-12.66-17.08-22.38-29.9-29.17-8.26-4.38-17.08-7.27-26.04-9.78-10.13-2.84-20.44-4.82-30.93-5.34-12.05-.59-24.13-.69-36.19-.78-22.36-.17-44.71-.26-67.07-.25-46.29.03-92.58.14-138.87.22-.6,0-1.21-.03-1.81,0-3.03.19-4.68,1.4-5.31,4.4-.49,2.34-.56,4.77-.8,7.16-1.13,11.01-2.24,22.03-3.37,33.04-.68,6.58-1.44,13.16-2.1,19.75-.56,5.63-.98,11.27-1.5,16.91-.63,6.82,4.11,10.74,10.06,10.73Z"/>
        <path d="M1332.31,626.55c-1.59-.45-3.32-.52-4.99-.52-57.05-.03-114.09-.02-171.14-.02s-113.61,0-170.42,0c-1.09,0-2.18-.04-3.26.01-3.71.2-6.38,1.93-7.82,5.43-5.51,13.36-7.4,27.2-4.94,41.47,2.06,11.98,7.79,21.97,17.31,29.66,12.65,10.23,27.53,14.67,43.4,14.71,96.81.23,193.62.09,290.43.19,5.24,0,10.77-3.74,11.39-10.32.13-1.44.18-2.89.33-4.33,1.33-12.93,2.7-25.85,4.02-38.78.9-8.86,1.69-17.73,2.65-26.59.52-4.86-2.28-9.58-6.94-10.91Z"/>
        <path d="M1478.92,625.76c-5.46,0-5.42.03-9.04,4.27-20.6,24.12-41.22,48.22-61.83,72.33-1.96,2.29-4.04,4.5-5.78,6.95-2.1,2.95-1.11,7.04,1.99,8.33,1.26.53,2.82.48,4.25.48,41.94.02,83.89-.02,125.83.05,7.72.01,13.76-2.98,18.48-8.94,3.45-4.35,6.88-8.71,10.33-13.06,17.39-21.94,34.79-43.87,52.18-65.81.34-.43.68-.88,1.02-1.35.99-1.34.03-3.24-1.64-3.24-.3,0-.59,0-.88,0-44.97,0-89.93,0-134.9,0Z"/>
      </g>
      <g>
        <path d="M1293.47,564.98c7.29.4,14.5-.29,21.31-3.1,2.28-.94,4.52-2.37,6.3-4.08,3.77-3.62,2.93-7.93-1.82-9.63-2.69-.96-5.57-1.7-8.41-1.92-12.74-.99-25.3.19-37.56,3.93-1.55.47-2.99.66-4.55.05-11.29-4.44-23.07-4.91-34.94-3.94-3.91.32-7.75,1.58-11.59,2.56-1.48.38-2.72,1.39-2.27,3.16.38,1.54,1.9,1.91,3.19,1.85,1.91-.09,3.85-.38,5.68-.93,9.66-2.91,19.07-1.87,28.37,1.52.85.31,1.67.72,2.65,1.15q-11.38,9.08-11.77,20.92c-1.22.23-2.49.52-3.77.71-10.52,1.59-20.87,3.87-30.72,8.02-5.02,2.12-10.02,4.41-13.93,8.28-2.56,2.54-5.43,4.5-8.72,5.7-4.86,1.77-9.82,3.32-14.81,4.67-2.36.64-4.89.6-7.35.88-.11-.3-.22-.59-.33-.89.55-.77,1.03-1.61,1.66-2.31,7.63-8.39,15.29-16.76,22.92-25.14,8.28-9.1,16.55-18.21,24.8-27.35.66-.73,1.12-1.66,1.93-2.89-10.02,0-19.44.04-28.86-.04-1.87-.02-2.82,1.1-3.87,2.26-5.24,5.83-10.47,11.67-15.73,17.48-8.34,9.21-16.77,18.34-24.99,27.66-2.05,2.32-4.29,4.26-6.93,5.72-6.5,3.61-13.53,5.74-20.85,6.91-1.43.23-2.94.03-4.87.03.57-1.01.74-1.46,1.03-1.79,3.29-3.7,6.58-7.38,9.89-11.06,9.13-10.12,18.27-20.24,27.4-30.36,1.86-2.06,3.74-4.1,5.48-6.26,3.11-3.86,2.21-7.07-2.46-8.54-2.28-.72-4.68-1.35-7.05-1.46-8.43-.4-16.88-.68-25.32-.74-2.85-.02-5.74.59-8.56,1.16-1.42.29-2.85,1.19-2.61,2.97.2,1.51,1.56,2.15,2.92,2.28,2.16.21,4.34.24,6.51.29,1.94.04,3.85.14,5.7,1.8-.74.95-1.4,1.9-2.18,2.76-2.75,3.05-5.55,6.05-8.3,9.09-9.94,11.01-19.89,22.02-29.8,33.07-1.28,1.43-2.56,2.94-3.44,4.63-1.89,3.59-1.22,7.61,3.36,8.93,1.73.5,3.51,1.11,5.27,1.11,5.78,0,11.56-.1,17.33-.47,8.73-.56,17.12-2.76,25.24-5.99.62-.25,1.3-.34,2.14-.55.26,3.9,2.97,5.25,5.94,6.18,1.6.49,3.3.71,4.97.87,8.76.88,17.35-.47,25.8-2.57,7.34-1.82,14.56-4.16,21.99-6.31,1.3,2.85,3.98,4.33,6.95,5.57,5.09,2.13,10.49,2.87,15.88,3.24,13.55.95,27,.08,40.19-3.44,8.94-2.39,17.45-5.7,24.71-11.62,5.18-4.22,8.45-9.28,6.19-16.72,5.45.19,10.3-.63,12.76-6.28-1.33,0-2.61-.05-3.88.01-2.28.1-4.57.44-6.84.36-3.87-.13-7.61-.46-9.71-4.7-1.45-2.94-1.6-4.98.49-7.9,3.95.41,7.88.96,11.83,1.18ZM1308.26,555.27c-3.65,4.02-12.45,4.98-19.43,2.12,5.75-4.49,16.09-5.62,19.43-2.12ZM1250.35,601.89c-3.68,2.88-8.1,4.29-12.67,4.98-3.91.59-7.85,1.41-11.82.3-.35-.1-.72-.09-1.07-.19-5.86-1.65-7.32-6.27-3.01-10.54,2.26-2.24,5.07-4.14,7.95-5.52,7.11-3.4,14.75-5.11,22.7-6.43.5.65.81,1.01,1.07,1.41,4.83,7.42,3.14,11.07-3.16,15.99Z"/>
        <path d="M1672.71,548.37c-1.53-.67-3.19-1.18-4.84-1.44-9.85-1.53-19.74-1.63-29.5.42-4.91,1.03-9.65,2.89-14.6,4.42-2.16-2.71-4.03-3.96-8.13-4.73-8.49-1.59-17.06-1.39-25.61-.56-6.14.59-12.06,2.17-17.58,4.7-3.2-2.83-5.81-4.06-11.07-4.33-8.67-.45-17.35-.71-26.04-.81-2.73-.03-5.51.56-8.2,1.14-1.38.3-2.79,1.11-2.6,2.98.18,1.69,1.6,2.11,2.88,2.25,2.27.26,4.58.26,6.87.32,1.81.05,3.58.16,5.35,1.89-17.4,19.82-35.32,39.09-52.76,58.86.57.37.75.6.93.6,9.79.04,19.58.1,29.37,0,1-.01,2.21-.82,2.95-1.61,4.04-4.31,7.98-8.72,11.93-13.11,8.56-9.5,17.08-19.03,25.68-28.49,2.76-3.03,5.4-6.31,8.67-8.69,6.41-4.69,13.82-7.33,21.62-8.75,1.91-.35,3.98-.69,6.19.58-.72,1.09-1.19,2.06-1.88,2.83-4.41,4.95-8.86,9.88-13.32,14.79-12,13.22-24.01,26.43-35.99,39.66-.65.72-1.1,1.62-1.91,2.86,10.11,0,19.53.06,28.95-.08,1.13-.02,2.44-.89,3.31-1.74,1.81-1.76,3.36-3.78,5.06-5.66,11.77-13.1,23.52-26.22,35.35-39.26,2.01-2.21,4.14-4.46,6.62-6.06,6.03-3.89,12.73-6.32,19.75-7.82,2.2-.47,4.46-.62,7.22.28-.78,1.19-1.24,2.12-1.91,2.86-8.95,9.96-17.93,19.89-26.9,29.83-5.25,5.82-10.55,11.6-15.68,17.53-3.42,3.95-2.55,6.91,2.34,8.85.78.31,1.59.66,2.42.73,3.6.31,7.21.85,10.8.69,10.03-.45,19.86-2.33,29.5-5.1,6.62-1.9,13.17-4.01,19.07-7.69,1.26-.79,2.35-1.85,3.87-3.06-2.27-1.48-4.07-2.65-5.96-3.87-9.07,6.49-25.4,11.43-30.56,9.16,1.87-2.13,3.65-4.22,5.5-6.26,10.52-11.63,21.07-23.23,31.57-34.88,1.53-1.7,2.98-3.51,4.15-5.46,2.33-3.88,1.3-6.93-2.9-8.76Z"/>
        <path d="M1426.15,614.34c10.14-.04,20.2-1.09,30.07-3.61,8.36-2.13,15.85-5.57,21.37-12.64,3.18-4.08,6.94-7.71,10.39-11.57,6.89-7.71,13.76-15.44,20.63-23.17,7.31-.06,14.69-.79,21.82-3.34,2.97-1.06,4.37-3.49,6.08-6.68-4.04.12-7.2,1.78-10.56,2.17-3.57.41-7.15.75-11.18,1.17.35-1.02.37-1.28.5-1.44,3.34-3.88,3.41-8.05-3.93-9.79-.23-.06-.48-.08-.71-.12-6.31-1.19-12.46-.53-18.52,1.51-1.09.37-2.36.72-3.45.53-13.85-2.43-27.64-1.92-41.33.93-8.68,1.81-16.37,5.57-22.39,12.42-9.32,10.59-18.84,21.01-28.24,31.53-3.05,3.41-6.17,6.79-8.92,10.44-2.07,2.74-1.43,5.18,1.39,7.14.97.68,2.11,1.25,3.25,1.52,3.63.86,7.26,1.97,10.95,2.23,7.57.54,15.18.81,22.77.78ZM1501.21,550.65c1.22-.08,2.42.47,2.39,2.09-.02,1.51-.99,2.29-2.65,2.15-1.65-.14-2.99-.76-4.14-3.06,1.74-.49,3.05-1.09,4.39-1.18ZM1427.31,594.62c10.61-11.86,21.31-23.65,31.86-35.56,3.81-4.31,8.29-6.5,14.06-5.81.84.1,1.71.16,2.5.43,4.43,1.5,7.23,3.71,2.59,8.82-10.63,11.69-21.18,23.44-31.65,35.26-3.87,4.37-8.63,6.42-14.36,6.47-1.93.02-3.87.02-5.79-.14-1.81-.16-3.61-.53-4.86-2.77,1.82-2.16,3.67-4.48,5.65-6.7Z"/>
        <path d="M994.16,611.19c.86.41,1.78.82,2.71.99,4.03.71,8.05,1.69,12.11,1.9,13.39.7,26.78.57,40.03-1.93,10.47-1.97,20.74-4.6,30.28-9.48,2.08-1.06,3.94-2.55,6.38-4.16-2.46-1.6-4.32-2.81-5.82-3.79-2.85,1.61-5.18,3.12-7.67,4.28-2.51,1.17-5.13,2.13-7.78,2.94-8.32,2.57-16.89,4.01-25.52,4.89-5.15.53-10.35.56-15.52.78-1.8.08-3.57-.09-5.38-1.59,1.59-1.96,3.02-3.86,4.59-5.63,6.17-6.94,12.38-13.85,18.59-20.76,6.78-7.53,13.54-15.08,20.38-22.56,3.79-4.15,11.18-5.36,16.14-2.62-.68,1-1.28,2.01-2.01,2.93-.69.88-1.52,1.66-2.28,2.48.13.17.27.35.4.52,10.16-1.84,20.32-3.69,30.54-5.54.68-4.91.04-6.12-3.96-7.19-2.55-.68-5.19-1.29-7.81-1.39-12.91-.48-25.82-.89-38.65,1.28-11.79,1.99-22.02,6.81-30.06,15.98-7.79,8.89-15.89,17.5-23.73,26.35-3.19,3.6-6.31,7.33-8.99,11.32-2.88,4.28-1.63,7.75,3.03,9.98Z"/>
        <path d="M1410.37,553.1c-1.51,1.59-3.02,3.18-4.53,4.77,2.73.67,5.12.59,7.5.69,3.43.15,6.79.34,8.82-3.31.32-.57,1.11-.91,1.74-1.27,3.44-1.99,6.91-3.95,10.35-5.95.65-.38,1.25-.84,1.87-1.27-.06-.18-.12-.37-.18-.55h-53.17c-16.68,0-33.35-.02-50.03.03-1.54,0-3.17.18-4.56.75-.77.31-1.59,1.62-1.56,2.45.03.83.93,2,1.73,2.34,1.28.54,2.8.68,4.23.7,6.4.07,12.81.01,19.21.04,1.79,0,3.67-.12,5.26,2.11-5.28,7-11.36,13.19-17.06,19.71-5.79,6.63-11.6,13.24-17.43,19.83-5.69,6.43-11.54,12.71-17.07,19.46.7.32.91.49,1.11.49,10.03.02,20.06,0,30.09.08,1.84.01,2.78-1,3.84-2.23,12.48-14.4,25.05-28.71,37.47-43.15,4.2-4.88,9.26-9.27,10.4-16.05,6.13-.63,19.52-.41,21.99.34Z"/>
      </g>
    </g>
    <g id="Layer_2" class="cls-1">
      <g>
        <path d="M1158.89,570.92l-35.43.3,22.06-11.57c6.24-3.27,9.73-5.29,10.52-6.09s-.06-1.17-2.55-1.14c-2.81.03-5.53.53-8.15,1.51-2.63.98-7.09,3.1-13.43,6.38l-61.93,32.11c-6.91,3.58-11.05,5.94-12.38,7.05-1.33,1.11-.57,1.66,2.3,1.64s5.62-.59,8.6-1.71c2.97-1.12,8.35-3.72,16.06-7.77l17.25-9.05,36.08-.27-5.13,2.78c-13.88,7.53-24.98,13-33.11,16.28-8.22,3.32-18.32,6.27-30.29,8.84-12.06,2.59-23.44,3.91-34.07,3.96s-17.98-1-20.86-3.13c-2.86-2.11-1.7-5.02,3.38-8.72,5.02-3.65,14.68-9.06,28.78-16.14l40.04-20.11c9.44-4.74,16.74-8.25,21.99-10.56,5.2-2.3,11.46-4.5,18.78-6.63,7.26-2.11,14.84-3.77,22.74-5.01,7.88-1.23,15.44-1.89,22.72-1.98,9.9-.11,16.37.7,19.44,2.44,3.09,1.76,3.11,4.02.01,6.78-3.13,2.8-10.27,7.23-21.61,13.38l-11.8,6.41Z"/>
        <path d="M1300.94,541.7l-75.15,44.91c-9.35,5.59-16.38,9.58-20.99,11.91-4.65,2.35-10.86,4.78-18.66,7.31-7.86,2.55-15.87,4.5-24.01,5.85-8.17,1.35-16.26,2.05-24.25,2.08-8.83.04-15.22-.72-19.16-2.25-3.91-1.53-5.28-3.52-4.12-5.96,1.14-2.42,3.85-4.96,8.09-7.62,4.21-2.63,13.86-8.09,28.66-16.23l71.19-39.11,34.12-.39-89.1,50.73c-5.72,3.26-9.07,5.36-10,6.27-.94.92-.36,1.37,1.73,1.36,2.39-.01,4.81-.53,7.27-1.55,2.45-1.02,6.93-3.4,13.38-7.11l86.57-49.81,34.43-.39Z"/>
        <path d="M1358.78,560.27l-33.68.32,7.71-4.91c3.55-2.26,5.38-3.69,5.49-4.29.12-.6-.81-.89-2.77-.87-2.14.02-4.4.45-6.81,1.29-2.41.84-4.97,2.1-7.67,3.8-3.5,2.2-5.53,3.86-6.07,4.97-.6,1.12.64,2.46,3.73,4.02,8.96,4.56,13.3,8.41,12.88,11.48-.43,3.12-6,8.25-16.93,15.52-8.12,5.4-15.45,9.46-21.92,12.1-6.52,2.67-14.79,4.94-24.8,6.79-10.06,1.86-19.9,2.82-29.5,2.86-10.51.04-17.75-.98-21.73-3.05-3.95-2.05-4.42-4.67-1.46-7.82,2.92-3.12,9.05-7.5,18.28-13.09l7.91-4.79,34.69-.25-14.32,9c-4.5,2.83-6.92,4.66-7.22,5.47-.3.82.83,1.22,3.39,1.2s5.29-.55,8.17-1.6c2.87-1.05,5.9-2.58,9.08-4.61,6.9-4.41,10.19-7.24,9.95-8.55-.3-1.3-2.67-3.46-7.07-6.43-4.3-2.97-6.81-5.1-7.56-6.42-.75-1.32-.16-3.14,1.77-5.46,1.91-2.3,5.8-5.22,11.63-8.75,8.27-5,15.54-8.62,21.89-10.9,6.3-2.26,13.37-4.04,21.24-5.35,7.84-1.3,15.87-2,24.13-2.1,9.05-.1,15.72.48,20.04,1.77,4.34,1.29,5.98,2.98,4.9,5.06-1.09,2.1-5.53,5.73-13.42,10.96l-3.98,2.64Z"/>
        <path d="M1473.82,539.73l-17.32,12.86-21.69.22-80.94,58.36-39.95.17,84.58-58.17-21.35.22,19.09-12.78,77.58-.89Z"/>
        <path d="M1517.78,578.52c-8.76,7.46-15.47,12.86-19.98,16.09-4.57,3.26-10.42,6.29-17.57,9.06-7.21,2.8-15.07,4.97-23.56,6.51-8.53,1.54-17.24,2.34-26.12,2.37-8.41.03-15.02-.65-19.85-2.05-4.79-1.39-7.34-3.48-7.67-6.25-.32-2.75,1.28-5.71,4.77-8.9,3.45-3.15,10.32-8.58,20.43-16.16l16.22-12.17c9.2-6.9,15.91-11.68,20.27-14.46,4.31-2.75,9.68-5.25,16.11-7.52,6.37-2.25,13.25-3.98,20.65-5.22,7.37-1.23,14.95-1.89,22.76-1.98s13.43.39,18.02,1.42c4.62,1.04,7.42,2.66,8.4,4.86.99,2.23.25,4.69-2.24,7.4-2.52,2.74-7.89,7.61-16.25,14.73l-14.4,12.26ZM1507.48,555.81c3.86-3.1,5.94-5.07,6.27-5.91.33-.84-.64-1.25-2.91-1.23-1.92.02-3.82.38-5.71,1.08-1.89.7-4.98,2.75-9.32,6.18l-42.07,33.26c-5.6,4.43-8.74,7.19-9.34,8.24-.61,1.06.41,1.58,3.07,1.56s5.23-.64,7.51-1.86c2.27-1.22,6.22-4.1,11.8-8.58l40.69-32.73Z"/>
        <path d="M1692.17,537.23l-67.74,72.78-36.88.16,50.63-51.03-65.28,51.09-25.92.11,38.79-49.66-54.12,49.73-36.21.16,82.72-72.03,47.5-.54c-2.64,3.83-6.02,8.42-10.17,13.81l-12.92,17.54,41.2-31.56,48.38-.55Z"/>
      </g>
    </g>
  </g>
</svg>